<svg xmlns="http://www.w3.org/2000/svg" viewBox="230.5 11.5 128 128" aria-hidden="true" focusable="false"><rect x="241" y="34" width="106" height="70" rx="8" fill="#1652a1"/><path d="M254 50h80v10h-80z" fill="#1652a1"/><path d="M254 68h36v8h-36z" fill="#1652a1"/><path d="M299 68h35v8h-35z" fill="#1652a1"/><path d="M254 84h80v8h-80z" fill="#1652a1"/><path d="M254 111h80v7h-80z" fill="#1652a1"/><path d="M262 97h11v14h-11z" fill="#1652a1"/><path d="M278 92h11v19h-11z" fill="#1652a1"/><path d="M294 88h11v23h-11z" fill="#1652a1"/><path d="M310 82h11v29h-11z" fill="#1652a1"/><path d="M326 76h11v35h-11z" fill="#1652a1"/><path d="M240 118h109v6h-109z" fill="#1652a1"/><path d="M286 124h17v8h-17z" fill="#1652a1"/><path d="M272 132h45v6h-45z" fill="#1652a1"/><path d="M340 42l9 9-9 9z" fill="#1652a1"/><path d="M250 42l-9 9 9 9z" fill="#1652a1"/><path d="M289 39h12v12h-12z" fill="#1652a1"/></svg>
