<svg xmlns="http://www.w3.org/2000/svg" viewBox="233 246.5 128 128" aria-hidden="true" focusable="false"><path d="M237 314c22-38 56-48 97-30 15 7 22 20 22 37-15-15-31-20-49-15-21 6-36 20-53 40-8-8-14-18-17-32z" fill="#1652a1"/><path d="M247 291c23-35 56-49 91-40-31 7-55 25-72 55z" fill="#1652a1"/><path d="M271 330c15-15 33-22 55-20-13 12-25 23-36 36-8-3-14-8-19-16z" fill="#1652a1"/><path d="M313 249c20 5 35 15 44 31-17-7-34-8-52-4z" fill="#1652a1"/><path d="M244 344h95v8h-95z" fill="#1652a1"/><path d="M258 358h69v8h-69z" fill="#1652a1"/></svg>
