<?xml version='1.0' encoding='UTF-8'?>
<svg xmlns="http://www.w3.org/2000/svg" viewBox="230.5 11.5 128 128" aria-hidden="true" focusable="false"><defs><style>
    .st0 { fill: #1652a1; }
  </style></defs><path class="st0" d="M317.65,54.47l22.17-.06c1.75,0,2.94-1.13,2.94-2.82l.04-12.54c0-1.48-.88-3.05-2.67-3.05l-37.15-.02c-1.83,0-2.87,1.03-2.86,2.71v12.93c.02,4.63,5.46,1.84,8.83,3.16l.46,6.88c2.77-2.57,5.19-4.9,8.23-7.2M313.7,61.4c-2.03.6-4.52,4.71-5.97,4.01-1.62-.78-.64-2.65-1.05-4.22l-45.08.08c-.51,0-.68-.74-.67-.98,0-.33.33-.95,1.05-.95l44.64-.03c.37-.84.4-1.65.09-2.18-.26-.44-1.31-.42-2.06-.32-3.19.47-6.75-1.24-6.93-4.54-.24-4.69,0-9.25,0-13.99,0-2.48,2.07-4.62,4.7-4.62l37.71-.04c3.03,0,5.13,2.37,5.09,5.1l-.18,13.84c-.04,2.88-3.16,4.68-5.92,4.15-1.6-.31-2.9.04-4.43.06l-15.61.12c-1.29.01-2.31,1.56-3.18,2.33l14.15.03c.75,0,1.28.43,1.3,1.04.01.52-.48.95-1.27.95l-16.37.17Z"/>
    <path class="st0" d="M293.13,88.01c1.36-.37-.16-2.37-.78-2.85l-3.68-2.88c-2.23,1.91-4.24,3.7-6.32,6.02,3.53-.08,7.28.66,10.78-.29M289.16,79.84c4.57,1.48,4.46,7.76,6.03,5.03.39-.68-1.6-1.21-1.63-3.38l-.18-12.82-26.27.09c-.08,4.44-.2,8.66.07,13.28,2.57-1.37,8.23-9.48,10.62-7.21l7.57,7.2c1.2-.78,2.17-2.72,3.79-2.19M274.14,88.52l4.68-.11c1.42-1.68,2.97-3.02,4.71-4.7-2.28-2.33-4.45-4.65-7.07-6.68-3.42,2.96-6.41,5.83-9.54,8.82-.41.4-.91.56-1.45.48-.43-.07-.91-.57-.91-1.29l-.02-16.85c0-.93.93-1.82,2.01-1.82h27.1c1.36.01,2.35,1.14,2.35,2.34l-.12,20.01c0,1.17-1.08,2.01-2.25,2.01l-19.31-.05c-.54,0-.93-.73-.98-1.03-.05-.31.14-1.11.79-1.13"/>
    <path class="st0" d="M258.13,49.53l-.08,33.11c0,.81-.45,1.31-1.03,1.37-.82.09-1.41-.41-1.41-1.36l-.05-31.83c0-2.03,1.08-3.65,3.41-3.65l35.46-.02c.93,0,1.26.85,1.2,1.37-.08.73-.67.95-1.59.96l-35.92.05Z"/>
    <path class="st0" d="M327.08,71.87l-22.74-.07c-.63,0-1.01-.66-1.03-1.02-.01-.32.34-.92.98-.92l22.82-.02c.78,0,1.12.52,1.12.97,0,.48-.38,1.06-1.14,1.06"/>
    <path class="st0" d="M327.03,77.02l-22.74-.02c-.62,0-.99-.65-1-.97-.01-.32.37-.97,1-.97l22.82-.04c.75,0,1.02.61,1.02,1,0,.49-.38,1-1.09,1"/>
    <path class="st0" d="M319.48,88.13l-15.25-.08c-.65,0-1.02-.77-.97-1.12.04-.32.38-.88,1.03-.88h15.48c.66,0,1.02.57,1.07.91.1.66-.45,1.18-1.34,1.17"/>
    <path class="st0" d="M318.21,82.87l-13.97-.05c-.59,0-.83-.5-.93-.75-.16-.38.17-1.2.92-1.2h13.97c.61,0,1.01.57,1.09.95.08.37-.32,1.04-1.08,1.04"/>
    <path class="st0" d="M279.53,54.35c0,.84-.71,1.52-1.59,1.52s-1.59-.68-1.59-1.52.71-1.52,1.59-1.52,1.59.68,1.59,1.52"/>
    <path class="st0" d="M272.71,54.31c0,.85-.72,1.53-1.61,1.53s-1.61-.69-1.61-1.53.72-1.53,1.61-1.53,1.61.69,1.61,1.53"/>
    <path class="st0" d="M265.85,54.35c0,.85-.72,1.53-1.6,1.53s-1.61-.68-1.61-1.53.72-1.53,1.61-1.53,1.6.69,1.6,1.53"/>
    <path class="st0" d="M289.7,73.28c0,1.47-1.25,2.66-2.8,2.66s-2.79-1.19-2.79-2.66,1.25-2.66,2.79-2.66,2.8,1.19,2.8,2.66"/>
    <path class="st0" d="M273.7,111.64l73.69-.25c-3.72-5.12-7.69-8.65-11.62-12.96l-61.55-.04c-.78,0-1.05-.38-1.2-.65-.21-.38-.13-1.52.76-1.52l61.71-.09-.02-37.61c0-.81,1.1-.75,1.5-.7.51.07.97.33.97,1.13v37.93s10.99,12.23,10.99,12.23c.69.77.71,2.11.36,3-.3.75-1.35,1.78-2.76,1.78l-72.28.03c-.82,0-1.01-.55-1.2-.8-.19-.26-.32-1.46.67-1.46"/>
  <rect class="st0" x="275.76" y="100.04" width="57.77" height="2.03"/>
  <path class="st0" d="M305.44,107.77c-5.33.15-10.62-.22-15.76.22-.66.06-1.9,1.55-2.57.55-.5-.76.86-2.81,1.94-2.85,5.59-.2,10.88-.2,16.54-.05,1.19.03,2.45,2.35,1.96,3.16-.53.87-1.59-.11-2.09-1.03"/>
    <path class="st0" d="M284.62,105.5c.86,2.17-4.54,1.46-7.48,1.46-.72,0-1.07-.52-1.02-1.08.04-.35.35-.87,1.05-.88l6.32-.04c.65,0,1.01.25,1.13.53"/>
    <path class="st0" d="M258.16,115.67c.49-1.48,1.34-2.9,2.59-3.3,1.64-.53,2.76-.27,4.3.42.77.35,2.32-.95,1.86-1.7-.91-1.46-1.24-2.55-.46-4.09.55-1.09,1.65-1.62,3.31-2.08.77-.22.71-2.31-.05-2.55-1.34-.42-2.58-.6-3.07-1.45-2.03-3.51,1.15-4.49-.18-5.87-2.58-2.69-2.08.95-6.26-.81-1.17-.49-1.54-1.76-1.96-2.93-.27-.73-2.76-.81-2.98-.09-.75,2.48-3.1,4.32-5.81,3.24-.77-.3-1.51-.73-2.19-.17-2.71,2.26,1.48,1.61-.35,5.74-.62,1.4-1.76,1.8-3.34,2.45-.7.29-.57,2.34.17,2.53,1.62.42,2.7.97,3.31,2.12.73,1.4.23,2.44-.35,3.92-.36.91,1.4,2.15,2.25,1.77,1.55-.71,2.69-.7,4.06-.18,1.29.49,1.73,1.7,2.37,2.99.3.58,2.28.55,2.79.04M260.65,116.17c-.7,2.29-1.52,2.41-6.34,1.99-1.55-.13-1.19-2.75-2.22-3.36-1.4-.83-3.27,1.23-4.33.68-1.67-.88-3.01-2.29-4.14-3.75.27-1.36,1.24-2.24,1.34-3.66-1.11-.84-2.48-.69-3.77-1.36-.43-1.74-.65-3.76-.11-5.5.3-.98,3.3-1.09,3.65-2.31.4-1.39-1.46-2.27-1.17-3.86-.07.39,3.01-5.19,6.32-2.94.41.28,1,.35,1.51.24,1.25-.27,1.25-3.14,2.19-3.44,1.84-.58,4.13-.54,6-.07,1.02.26,1.03,2.86,1.9,3.26,2.11.99,2.96-2.46,6.09.89.67.71,1.58,1.37,1.8,2.12.48,1.63-1.41,2.83-.91,4.1.39.99,3.18.71,3.61,1.61.68,1.43.87,4.17-.14,5.55-.77,1.04-2.89.66-3.44,2.01l1.32,3.5c-.84,1.5-2.27,2.81-3.89,3.69-1.1.6-2.4-1.37-4.15-.9-.57.15-.9.69-1.14,1.51"/>
    <path class="st0" d="M262.27,103.45c0-2.96-2.52-5.37-5.63-5.37s-5.63,2.4-5.63,5.37,2.52,5.36,5.63,5.36,5.63-2.4,5.63-5.36M264.39,103.42c0,4.09-3.48,7.41-7.77,7.41s-7.78-3.32-7.78-7.41,3.48-7.41,7.78-7.41,7.77,3.32,7.77,7.41"/>
    </svg>
