<?xml version='1.0' encoding='UTF-8'?>
<svg xmlns="http://www.w3.org/2000/svg" viewBox="237 465 128 128" aria-hidden="true" focusable="false"><defs><style>
    .st0 { fill: #1652a1; }
  </style></defs><path class="st0" d="M257.18,524.34c2.49.84,4.87.21,7.24,1.3.53,3.87,1.3,7.48,3.17,10.83,1.52,2.73-2.75,5.07-3.97,7.95l5.48,6.17,6.99-3.41c4.13,2.74,8.53,4.64,13.56,5.55.99,2.47.6,4.87,1.23,7.55,3,.22,6.02.25,8.88-.04,1.11-2.2.34-4.86,1.72-6.73.61-.83,5.65-2.33,6-.08.27,1.68-3.14,1.43-3.68,2.46-1.44,2.76-.19,7.64-3.29,7.53-4.02-.14-8.01.3-12.03-.19l-1.34-7.88c-4.11-.99-7.81-2.4-11.29-4.63-2.48.76-6.35,5-8.89,2.19l-5.87-6.5c-2.63-2.91,2.14-6.03,3.5-8.71-1.22-3.09-2.29-6.09-2.76-9.45-2.79-1.15-8.06.64-7.69-3.42.33-3.52-.61-7.29.32-10.75,1.5-1.81,5.34-1.03,7.65-.52,1.26-3.55,2.43-6.97,4.71-10.11-1.18-3.16-5.69-6.41-2.44-9.06l5.64-4.6c2.39-1.95,4.96,1.84,8.18,3.21,2.78-1.26,5.65-2.29,8.67-3.17,1.53-4.44-.32-8.15,3.9-8.13l10.37.05,1.5,7.75c3,.81,5.8,1.72,8.49,3.03,2.32-.81,5.68-4.8,7.53-3.23l6.14,5.21c3.05,2.59-.79,5.57-1.53,8.32,2,3.18,3.65,6.34,4.66,10.05l6.75.48c.97.07,1.67.78,1.67,1.83v10.24c0,3.44-4.3,2.35-7.31,3.6l-1.76,5.8c-.25.81-1.5.39-1.93-.14-.36-.44-.87-1.26-.36-2.17.94-1.7.51-4.34,1.94-5.72,1.59-1.53,4.35-.84,6.31-1.97.35-2.77.16-5.6.06-8.35l-7.72-.8c-1.2-4.38-2.91-8.25-5.47-11.91-1.17-1.67,2.17-4.93,2.75-6.61-1.72-1.7-3.44-3.41-5.55-4.8l-6.04,3.62c-3.61-1.69-7.15-3.15-11.06-3.91-1.14-2.38-.87-4.81-1.46-7.34-2.45-.32-4.92-.1-7.62-.09l-1.82,7.64c-12.52,2.77-7.54,7.09-17.58.22-1.97,1.24-3.59,2.84-5.34,4.36,1.28,2.29,2.92,4.01,3.86,6.66-2.34,3.6-4.08,7.24-5.23,11.36-2.78.41-5.22.66-7.79,1.37-.26,2.65-.18,5.06-.06,8.09"/>
    <path class="st0" d="M299.52,540.75l1.12-3.42c1.12.06,1.09,1.43,1.87,2.06.57.46,2.39-.33,2.96-.94.93-3.89-2.29-7.5-6.43-7.47l-7.75.05c-3.88.02-7.01,3.51-6.22,7.35.81,1.08,2.86,1.5,4.11,1.84l1.24-2.93c1.59.08.96,2.59,1.75,3.23,2.04.89,5.14.81,7.37.23M300.35,519.67c0-2.82-2.28-5.1-5.1-5.1s-5.1,2.29-5.1,5.1,2.29,5.11,5.1,5.11,5.1-2.29,5.1-5.11M288.9,514.64c2.64-3.11,6.64-3.76,9.91-2.19,3.26,1.56,5.08,5.1,4.31,8.98-.64,3.22-3.15,5.39-6.95,6.58,6.38-.37,11.06,1.71,12.58,8.01,4.2-4.33,6.49-9.69,5.87-15.46-.8-7.41-5.93-13.59-12.13-15.98-7.6-2.92-15.39-.87-20.88,4.44-7.84,7.58-7.68,19.93.44,27.14,1.21-6.21,5.94-8.58,11.98-8.2-2.91-.99-5.18-2.76-6.15-5.17-1.09-2.73-.99-5.78,1.01-8.14M317.5,522.27c0,12.28-9.95,22.23-22.23,22.23s-22.23-9.95-22.23-22.23,9.95-22.23,22.23-22.23,22.23,9.95,22.23,22.23"/>
    <path class="st0" d="M331.76,574.21c.9-2.18,1.3-3.54,2.97-4.15,1.74-.64,3.21-.69,5.06.25,1.2.6,3.24-1.3,2.63-2.55-.9-1.84-1.42-3.28-.49-5.11.63-1.23,1.9-1.97,3.77-2.43,1.27-.32,1.41-3.27.28-3.62-2.24-.7-3.81-1.1-4.52-3.23-1.46-4.4,3.36-4.44-.62-7.19-1.62-1.12-3,1.78-7.31-.58-1.16-.63-1.26-2.2-2-3.6-.5-.95-3.5-.93-4,.01-.96,1.83-1.41,3.49-3.15,4.05-2.06.66-3.54.18-5.56-.4-.97-.27-2.85,1.74-2.85,2.7.99,1.81,1.68,3.58.89,5.37-.81,1.84-2.15,2.61-4.18,3.46-.86.36-.74,3.18.1,3.55,1.74.76,3.51.85,4.1,2.48,1.95,5.37-2.28,4.2.85,7.31,1.85,1.84,3.14-2.28,8.05.07,1.09.52,1.3,2.11,1.99,3.56.47.96,3.57,1.02,3.97.05M326.45,577.53c-1.91-.13-1.3-3.63-2.51-4.5-1.7-1.22-4.48,1.97-5.8,1.34-1.78-.85-3.4-2.5-4.66-4.05-1.23-1.52,1.49-3.54.85-5.55-.44-1.39-4.32-.61-4.66-2.38-.41-2.12-.48-4.42-.12-6.6.24-1.41,3.86-1.47,4.55-2.71,1.24-2.21-2.29-4.34-1.16-6.07,1.05-1.61,2.66-2.85,4.06-4.14,1.94-1.79,4.27,1.13,6.18.45,1.47-.52,1.36-3.87,3.15-4.34,2.24-.58,4.64-.4,6.94-.11,1.22,1.17,1.05,3.2,2.31,4.17,1.41,1.09,3.14-.28,4.56-.44,1.79-.2,2.82,1.71,4.05,2.63,4.01,3-1.9,6.83.58,7.66l4.29,1.43c.37,2.31.79,5.02-.03,7.28-.47,1.3-4.17,1.22-4.6,2.7-.34,1.13,1.76,2.99,1.52,4.8-.14,1.08-1.41,1.76-2.15,2.65-3.65,4.43-4.97-.14-7.91,1.03-1.44.58-.88,4.46-2.7,4.65-2.15.22-4.29.23-6.74.07"/>
    <path class="st0" d="M336.01,557.95c0-3.71-3-6.71-6.71-6.71s-6.71,3-6.71,6.71,3,6.71,6.71,6.71,6.71-3,6.71-6.71M338.76,557.98c0,5.23-4.24,9.47-9.47,9.47s-9.47-4.24-9.47-9.47,4.24-9.47,9.47-9.47,9.47,4.24,9.47,9.47"/>
    </svg>
