<?xml version='1.0' encoding='UTF-8'?>
<svg xmlns="http://www.w3.org/2000/svg" viewBox="237 702.5 128 128" aria-hidden="true" focusable="false"><defs><style>
    .st0 { fill: #1652a1; }
  </style></defs><path class="st0" d="M288.59,774.03v18.88s46.83,0,46.83,0v-18.89s-46.83,0-46.83,0ZM331.82,771.6c.33-1.65.36-2.96-.18-4.37l-11.69.04c-.5,1.56-.52,2.96-.21,4.37l12.08-.04ZM317.62,771.59c.12-2.03.02-3.05-.42-4.46l-24.49.07c-.39,1.57-.75,3.34.14,4.46l24.77-.07ZM320.53,748.96l-.16-14.6-52.5-.29c-.34-.01-.29-.59-.15-.74.15-.16.24-.74.74-.75l58.66-.22c1.18-.13,1.03-4.38-.27-4.39l-27.1-.25c-10.4-.1-20.5-.3-30.83.22-1.17.7-1.39,3.94-.2,4.64l38.99.17c-1.79,1.76-4.42,1.34-6.68,1.34l-23.88.02c-.8-.08-1.64.46-1.64,1.33l.02,15.52h44.2c.69,0,.8-1.42.79-2M331.8,764.77c3.35,0,1.93,5.5,2.74,6.52.61.78,3.29-.06,3.27,3.67l-.06,17.18c0,1.92-1.24,3.04-3.07,3.04l-45.5-.03c-1.58,0-2.78-.97-2.79-2.55l-.11-14.03c-3.56-.35-6.97-.23-10.71-.03l-.04,20.7h44c.62,0,1.12-1.67,1.98-1.05.72.52.84,2.05.16,3h-46.92c-1.01,0-1.39-.86-1.39-1.77l-.02-65.1c-1.81-.52-3.29-.39-5.25-.06l-.05,67.48c0,2.38,1.65,4.23,4.1,4.23l50.99-.06c5.57,0,2.96-7.32,4.72-7.59,1.74-.27,1.38,1.77,1.41,2.87.1,3.99-2.35,7.12-6.56,7.12l-50.56-.06c-3.66,0-6.25-2.83-6.26-6.6l-.11-72.13c0-2.21,1.61-4.05,3.82-4.05l56.95.04c2.02,0,3.55,2.01,3.55,3.88l.02,30.95c0,.65-.57,1.07-.88,1.26-.35.22-1.4-.19-1.4-.92l-.17-26.33c-1.66-.46-3.33-.49-5.04.14l-.15,25.41c0,.67-.23,1.32-.75,1.35-.36.02-1.12-.32-1.14-.95l-.19-6.98h-44.87s.05,22.76.05,22.76h10.72c.04-1.39-.01-2.53.64-3.52.54-.82,1.73-.91,3.02-1.06.57-2.46-.4-4.14.95-6.14.38-.57,1.74-.36,2.25-.94.79-1.06.2-2.67.39-3.93.68-4.52,12.83-1.35,11.66-2.14l2.3,1.55c.98.66,8.07-.76,9.05,1.01.34.6.62,1.63-.16,2.05-.79.42-1.51-.49-2.21-.51l-7.9-.2-2.3-1.68c-1.85-1.35-5.17.02-7.86-.02-.65,1.27-.54,2.6-.3,4.16l36.02.05Z"/>
  <rect class="st0" x="292.02" y="740.01" width="12.84" height="2.28" transform="translate(-2.16 .87) rotate(-.17)"/>
  <rect class="st0" x="305.96" y="781.92" width="12.52" height="2.44"/>
</svg>
