<?xml version='1.0' encoding='UTF-8'?>
<svg xmlns="http://www.w3.org/2000/svg" viewBox="233 246.5 128 128" aria-hidden="true" focusable="false"><defs><style>
    .st0 { fill: #1652a1; }
  </style></defs><path class="st0" d="M282.96,338.57c-1.9-2.91-2.47-5.36-2.57-8.29l-24.81.07c.04,3.26-1.15,5.7-2.66,8.34l30.04-.12ZM330.81,322.58c1.49-1.34,2.46-3.16,3.64-4.72-2.49.04-5.29-.71-7.6.19-1.65.98-2.61,3.12-3.88,4.68,2.58,0,5.39.64,7.84-.16M355.06,322.79c.17-1.78.33-3.32-.04-4.97-2.1-.31-3.95-.2-6.02-.11-1.27,1.63-2.49,3.04-3.71,5.04,3.29.32,6.45.2,9.76.04M341.9,322.72l3.6-4.98-7.53-.08-3.81,5.06c2.61.21,5,.28,7.74,0M278.73,318.37c0-5.25-4.34-9.5-9.69-9.5s-9.69,4.25-9.69,9.5,4.34,9.5,9.69,9.5,9.69-4.25,9.69-9.5M294.4,323.23l-.06-16.57c-1.98-.08-3.69-.19-5.71-.02l-.05,16.71c2.03.27,3.82.37,5.82-.11M311.91,327.26l.05-23.68c0-.72-.56-1.55-1.32-1.58-2.57-.1-13.67,0-13.65,3.69l.11,19.29c1.92,1.05,14.81,5.71,14.81,2.28M277.11,327.51c2.62.07,8.88,1.48,8.88-1.41l-.02-22.56c0-.99-.63-1.92-1.8-1.91l-34.82.12c-.57,3.24-.15,6.11-.16,9.18l-.04,15.18c0,1.08.75,1.72,1.83,1.71,3.34-.05,6.42.12,10.03-.18-5.35-4.65-5.73-12.77-.92-17.57,5.04-5.03,12.87-5.05,17.78-.09,4.82,4.87,4.83,12.77-.76,17.54M246.6,319.93l-.05-18.05c-2.23-.19-4.23-.3-6.45.23l.02,17.71c2.18.55,4.22.44,6.47.12M280.62,298.99c-.52-3.71-5.36-1.49-7.47-3.93-1.83-2.12-.14-6.47-1.8-6.52l-.66,5.77c-.28,2.41-7.61,1.74-7.42,4.59l17.35.1ZM268.14,288.7c-3.12-.92-6.8,1.26-7.96-3.73-7.55,1.05-6.74,8.5-6.52,14.18l7.13-.04c.02-8.12,9.87-2.12,7.35-10.41M291.47,282.71c-.3-.53-7.34-.88-7.28.37.04.69,8.22,1.33,7.28-.37M281.24,285.88c.63-2.21.69-4.02-.11-5.94l-17.74.04c-.85,1.98-.92,4.22.09,5.99l17.76-.09ZM321.54,287.78c4.26,0,3.5-7.31,2.38-8.64-.71-.83-2.07-1.43-3.56-1.43l-22.72.03c-1.43,0-3.01.99-3.26,2.36-.34,1.89-.33,3.69.02,5.57.23,1.26,1.74,2.17,3.1,2.16l24.04-.05ZM357.73,317.65l-.02,24.94c0,1.91-1.65,3.53-3.61,3.53l-46.39-.02c-1.97,0-3.83-1.21-3.87-3.14l-.22-12.79-7.47-2.76c-1.56-.57-2.45-1.8-4.51-1.33-.76.18-2.52-.51-2.96.41-1.15,2.38-.74,3.82-5.42,3.92-1.29,4.88,7.03,10.91,1.81,10.88l-35.22-.18c-1.25,0-.53-2.21-.07-2.74,1.91-2.21,3.34-4.96,3.01-8-.67-.26-1.5-.14-2.29-.11-2.25.08-3.82-1.52-3.88-3.73-.04-1.33.03-2.51-.13-3.88l-5.23.05c-2.48.02-3.91-1.66-3.9-3.99l.04-16.04c0-1.96,1.47-3.4,3.42-3.41l10.17-.08c-.57-8.03-.23-15.2,9.08-17.16.39-1.13.32-2.5.87-3.21.75-.96,1.91-1.41,3.32-1.41l16.35-.02c1.93,0,2.66,1.51,3.92,2.22,2.04.83,4.66-.02,6.92.25,1.02-3.01,3.28-4.74,6.45-4.74l22.36-.04c2.18,0,4.09.6,5.35,1.97,1.49,1.61,1.74,3.42,1.84,5.74.13,3.21-1.55,7.47-5.39,7.5l-24.11.14c-2.95.02-5.25-1.6-6.37-4.28-14.78-.69-1.89,2.67-16.77,2.35-1.9,9.43,7.55,2.27,7.97,9.87.08,1.37,2.29-.06,4.81,2.04.87.72.49,2.56,1.19,3.36,8.12,1.41,4.82-1.74,9.58-2.87,3.13-.74,12.96-2.1,14.86-.48.82.7,1.27,1.79,1.27,3.14l-.02,23.42c0,1.89-1,3.81-2.95,3.85l-5.1.09.03,12.63,47.1.02c.87,0,1.53-.61,1.53-1.4l-.08-16.8-36.64-.11c-.61,0-.61-1.19-.6-1.53.02-.54,1.02-.57,1.48-1,6.22-5.84,2.44-5.84,3.51-6.71.36-.29,1.01-.71,1.79-.72l30.4-.13c1.27,0,2.75.98,2.75,2.5"/>
    <path class="st0" d="M328.74,310.14c.79-2.57,2.03-4.3,2.48-6.75-2.35.78-5.43.47-7.16,1.98-1.72,1.5-1.86,4.38-3.15,6.32,2.83-.19,5.08-.81,7.83-1.55M332.06,309.21l8.79-2.22,2.78-6.66c-2.96.3-5.57,1.15-8.52,1.92-1.17,2.3-2.33,4.41-3.04,6.96M351.67,304.26c.88-1.95,1.86-3.75,1.63-6.14-2.19-.17-4.24.68-6.39,1.32-1.09,2.29-2,4.36-2.76,6.69,2.84-.47,5.07-1.1,7.52-1.87M319.03,314.72c-4.1.4,1.68-7.29,1.62-8.9-.91.18-1.48.14-2.09.22-.61.08-1.34-.99-1.04-1.71l34.5-8.94c1.77-.46,3.09.23,3.52,1.98l1.46,5.88c.29,1.17-.31,2.53-1.61,2.86l-25.04,6.27c-3.85.96-7.38,1.96-11.32,2.35"/>
    <path class="st0" d="M336.33,334.17c.48,1.31-7.51,4.77-9,5.31-1.64.6-.75-8.62-.52-10.05,1.61.54,9.26,4.04,9.52,4.74"/>
    <path class="st0" d="M255.44,309.98c-3.14.03-4.91.52-5.06-1.04-.14-1.49,2.99-1.16,5.04-1.14.81,0,1.38.43,1.31,1.15-.05.51-.45,1.03-1.3,1.04"/>
    <path class="st0" d="M255.63,306.19c-2.69.15-5.4.44-5.27-1.13.04-.41.36-.93,1.11-.93h3.91c.63-.01,1.07.21,1.18.51.23.62.11,1.49-.93,1.55"/>
    <path class="st0" d="M267.12,322.52c-.83-.62-.91-1.81-.12-2.39.93-.68,1.94-.91,3.06-1.62l-3.15-1.97c-.68-.43-.72-2.38.09-2.26,1.36.2,6.63,2.96,6.62,4.21-.02,1.46-4.71,3.14-6.49,4.02"/>
    </svg>
