<svg xmlns="http://www.w3.org/2000/svg" viewBox="0 0 595.28 841.89"><rect x="241" y="34" width="106" height="70" rx="8" fill="#1652a1"/><path d="M254 50h80v10h-80z" fill="#1652a1"/><path d="M254 68h36v8h-36z" fill="#1652a1"/><path d="M299 68h35v8h-35z" fill="#1652a1"/><path d="M254 84h80v8h-80z" fill="#1652a1"/><path d="M254 111h80v7h-80z" fill="#1652a1"/><path d="M262 97h11v14h-11z" fill="#1652a1"/><path d="M278 92h11v19h-11z" fill="#1652a1"/><path d="M294 88h11v23h-11z" fill="#1652a1"/><path d="M310 82h11v29h-11z" fill="#1652a1"/><path d="M326 76h11v35h-11z" fill="#1652a1"/><path d="M240 118h109v6h-109z" fill="#1652a1"/><path d="M286 124h17v8h-17z" fill="#1652a1"/><path d="M272 132h45v6h-45z" fill="#1652a1"/><path d="M340 42l9 9-9 9z" fill="#1652a1"/><path d="M250 42l-9 9 9 9z" fill="#1652a1"/><path d="M289 39h12v12h-12z" fill="#1652a1"/><path d="M237 314c22-38 56-48 97-30 15 7 22 20 22 37-15-15-31-20-49-15-21 6-36 20-53 40-8-8-14-18-17-32z" fill="#1652a1"/><path d="M247 291c23-35 56-49 91-40-31 7-55 25-72 55z" fill="#1652a1"/><path d="M271 330c15-15 33-22 55-20-13 12-25 23-36 36-8-3-14-8-19-16z" fill="#1652a1"/><path d="M313 249c20 5 35 15 44 31-17-7-34-8-52-4z" fill="#1652a1"/><path d="M244 344h95v8h-95z" fill="#1652a1"/><path d="M258 358h69v8h-69z" fill="#1652a1"/><path d="M254 486h92v88h-92z" fill="#1652a1"/><path d="M265 497h70v12h-70z" fill="#1652a1"/><path d="M265 521h70v12h-70z" fill="#1652a1"/><path d="M265 545h44v12h-44z" fill="#1652a1"/><path d="M289 725c23 0 42 19 42 42s-19 42-42 42-42-19-42-42 19-42 42-42zm0 18c-13 0-24 11-24 24s11 24 24 24 24-11 24-24-11-24-24-24z" fill="#1652a1"/><rect x="316" y="727" width="20" height="80" rx="8" fill="#1652a1"/><rect x="265" y="804" width="72" height="10" rx="5" fill="#1652a1"/></svg>
