<?xml version="1.0" encoding="UTF-8"?>
<svg id="Ebene_1" xmlns="http://www.w3.org/2000/svg" version="1.1" xmlns:xlink="http://www.w3.org/1999/xlink" viewBox="0 0 595.28 841.89">
  <!-- Generator: Adobe Illustrator 30.2.1, SVG Export Plug-In . SVG Version: 2.1.1 Build 1)  -->
  <defs>
    <style>
      .st0 {
        fill: #1652a1;
      }

      .st1 {
        fill: none;
      }

      .st2 {
        clip-path: url(#clippath-1);
      }

      .st3 {
        clip-path: url(#clippath);
      }
    </style>
    <clipPath id="clippath">
      <rect class="st1" x="237.36" y="33.61" width="120.37" height="774.69"/>
    </clipPath>
    <clipPath id="clippath-1">
      <rect class="st1" x="237.36" y="33.61" width="120.37" height="774.69"/>
    </clipPath>
  </defs>
  <g class="st3">
    <path class="st0" d="M317.65,54.47l22.17-.06c1.75,0,2.94-1.13,2.94-2.82l.04-12.54c0-1.48-.88-3.05-2.67-3.05l-37.15-.02c-1.83,0-2.87,1.03-2.86,2.71v12.93c.02,4.63,5.46,1.84,8.83,3.16l.46,6.88c2.77-2.57,5.19-4.9,8.23-7.2M313.7,61.4c-2.03.6-4.52,4.71-5.97,4.01-1.62-.78-.64-2.65-1.05-4.22l-45.08.08c-.51,0-.68-.74-.67-.98,0-.33.33-.95,1.05-.95l44.64-.03c.37-.84.4-1.65.09-2.18-.26-.44-1.31-.42-2.06-.32-3.19.47-6.75-1.24-6.93-4.54-.24-4.69,0-9.25,0-13.99,0-2.48,2.07-4.62,4.7-4.62l37.71-.04c3.03,0,5.13,2.37,5.09,5.1l-.18,13.84c-.04,2.88-3.16,4.68-5.92,4.15-1.6-.31-2.9.04-4.43.06l-15.61.12c-1.29.01-2.31,1.56-3.18,2.33l14.15.03c.75,0,1.28.43,1.3,1.04.01.52-.48.95-1.27.95l-16.37.17Z"/>
    <path class="st0" d="M293.13,88.01c1.36-.37-.16-2.37-.78-2.85l-3.68-2.88c-2.23,1.91-4.24,3.7-6.32,6.02,3.53-.08,7.28.66,10.78-.29M289.16,79.84c4.57,1.48,4.46,7.76,6.03,5.03.39-.68-1.6-1.21-1.63-3.38l-.18-12.82-26.27.09c-.08,4.44-.2,8.66.07,13.28,2.57-1.37,8.23-9.48,10.62-7.21l7.57,7.2c1.2-.78,2.17-2.72,3.79-2.19M274.14,88.52l4.68-.11c1.42-1.68,2.97-3.02,4.71-4.7-2.28-2.33-4.45-4.65-7.07-6.68-3.42,2.96-6.41,5.83-9.54,8.82-.41.4-.91.56-1.45.48-.43-.07-.91-.57-.91-1.29l-.02-16.85c0-.93.93-1.82,2.01-1.82h27.1c1.36.01,2.35,1.14,2.35,2.34l-.12,20.01c0,1.17-1.08,2.01-2.25,2.01l-19.31-.05c-.54,0-.93-.73-.98-1.03-.05-.31.14-1.11.79-1.13"/>
    <path class="st0" d="M258.13,49.53l-.08,33.11c0,.81-.45,1.31-1.03,1.37-.82.09-1.41-.41-1.41-1.36l-.05-31.83c0-2.03,1.08-3.65,3.41-3.65l35.46-.02c.93,0,1.26.85,1.2,1.37-.08.73-.67.95-1.59.96l-35.92.05Z"/>
    <path class="st0" d="M327.08,71.87l-22.74-.07c-.63,0-1.01-.66-1.03-1.02-.01-.32.34-.92.98-.92l22.82-.02c.78,0,1.12.52,1.12.97,0,.48-.38,1.06-1.14,1.06"/>
    <path class="st0" d="M327.03,77.02l-22.74-.02c-.62,0-.99-.65-1-.97-.01-.32.37-.97,1-.97l22.82-.04c.75,0,1.02.61,1.02,1,0,.49-.38,1-1.09,1"/>
    <path class="st0" d="M319.48,88.13l-15.25-.08c-.65,0-1.02-.77-.97-1.12.04-.32.38-.88,1.03-.88h15.48c.66,0,1.02.57,1.07.91.1.66-.45,1.18-1.34,1.17"/>
    <path class="st0" d="M318.21,82.87l-13.97-.05c-.59,0-.83-.5-.93-.75-.16-.38.17-1.2.92-1.2h13.97c.61,0,1.01.57,1.09.95.08.37-.32,1.04-1.08,1.04"/>
    <path class="st0" d="M279.53,54.35c0,.84-.71,1.52-1.59,1.52s-1.59-.68-1.59-1.52.71-1.52,1.59-1.52,1.59.68,1.59,1.52"/>
    <path class="st0" d="M272.71,54.31c0,.85-.72,1.53-1.61,1.53s-1.61-.69-1.61-1.53.72-1.53,1.61-1.53,1.61.69,1.61,1.53"/>
    <path class="st0" d="M265.85,54.35c0,.85-.72,1.53-1.6,1.53s-1.61-.68-1.61-1.53.72-1.53,1.61-1.53,1.6.69,1.6,1.53"/>
    <path class="st0" d="M289.7,73.28c0,1.47-1.25,2.66-2.8,2.66s-2.79-1.19-2.79-2.66,1.25-2.66,2.79-2.66,2.8,1.19,2.8,2.66"/>
    <path class="st0" d="M273.7,111.64l73.69-.25c-3.72-5.12-7.69-8.65-11.62-12.96l-61.55-.04c-.78,0-1.05-.38-1.2-.65-.21-.38-.13-1.52.76-1.52l61.71-.09-.02-37.61c0-.81,1.1-.75,1.5-.7.51.07.97.33.97,1.13v37.93s10.99,12.23,10.99,12.23c.69.77.71,2.11.36,3-.3.75-1.35,1.78-2.76,1.78l-72.28.03c-.82,0-1.01-.55-1.2-.8-.19-.26-.32-1.46.67-1.46"/>
  </g>
  <rect class="st0" x="275.76" y="100.04" width="57.77" height="2.03"/>
  <g class="st2">
    <path class="st0" d="M305.44,107.77c-5.33.15-10.62-.22-15.76.22-.66.06-1.9,1.55-2.57.55-.5-.76.86-2.81,1.94-2.85,5.59-.2,10.88-.2,16.54-.05,1.19.03,2.45,2.35,1.96,3.16-.53.87-1.59-.11-2.09-1.03"/>
    <path class="st0" d="M284.62,105.5c.86,2.17-4.54,1.46-7.48,1.46-.72,0-1.07-.52-1.02-1.08.04-.35.35-.87,1.05-.88l6.32-.04c.65,0,1.01.25,1.13.53"/>
    <path class="st0" d="M258.16,115.67c.49-1.48,1.34-2.9,2.59-3.3,1.64-.53,2.76-.27,4.3.42.77.35,2.32-.95,1.86-1.7-.91-1.46-1.24-2.55-.46-4.09.55-1.09,1.65-1.62,3.31-2.08.77-.22.71-2.31-.05-2.55-1.34-.42-2.58-.6-3.07-1.45-2.03-3.51,1.15-4.49-.18-5.87-2.58-2.69-2.08.95-6.26-.81-1.17-.49-1.54-1.76-1.96-2.93-.27-.73-2.76-.81-2.98-.09-.75,2.48-3.1,4.32-5.81,3.24-.77-.3-1.51-.73-2.19-.17-2.71,2.26,1.48,1.61-.35,5.74-.62,1.4-1.76,1.8-3.34,2.45-.7.29-.57,2.34.17,2.53,1.62.42,2.7.97,3.31,2.12.73,1.4.23,2.44-.35,3.92-.36.91,1.4,2.15,2.25,1.77,1.55-.71,2.69-.7,4.06-.18,1.29.49,1.73,1.7,2.37,2.99.3.58,2.28.55,2.79.04M260.65,116.17c-.7,2.29-1.52,2.41-6.34,1.99-1.55-.13-1.19-2.75-2.22-3.36-1.4-.83-3.27,1.23-4.33.68-1.67-.88-3.01-2.29-4.14-3.75.27-1.36,1.24-2.24,1.34-3.66-1.11-.84-2.48-.69-3.77-1.36-.43-1.74-.65-3.76-.11-5.5.3-.98,3.3-1.09,3.65-2.31.4-1.39-1.46-2.27-1.17-3.86-.07.39,3.01-5.19,6.32-2.94.41.28,1,.35,1.51.24,1.25-.27,1.25-3.14,2.19-3.44,1.84-.58,4.13-.54,6-.07,1.02.26,1.03,2.86,1.9,3.26,2.11.99,2.96-2.46,6.09.89.67.71,1.58,1.37,1.8,2.12.48,1.63-1.41,2.83-.91,4.1.39.99,3.18.71,3.61,1.61.68,1.43.87,4.17-.14,5.55-.77,1.04-2.89.66-3.44,2.01l1.32,3.5c-.84,1.5-2.27,2.81-3.89,3.69-1.1.6-2.4-1.37-4.15-.9-.57.15-.9.69-1.14,1.51"/>
    <path class="st0" d="M262.27,103.45c0-2.96-2.52-5.37-5.63-5.37s-5.63,2.4-5.63,5.37,2.52,5.36,5.63,5.36,5.63-2.4,5.63-5.36M264.39,103.42c0,4.09-3.48,7.41-7.77,7.41s-7.78-3.32-7.78-7.41,3.48-7.41,7.78-7.41,7.77,3.32,7.77,7.41"/>
    <path class="st0" d="M282.96,338.57c-1.9-2.91-2.47-5.36-2.57-8.29l-24.81.07c.04,3.26-1.15,5.7-2.66,8.34l30.04-.12ZM330.81,322.58c1.49-1.34,2.46-3.16,3.64-4.72-2.49.04-5.29-.71-7.6.19-1.65.98-2.61,3.12-3.88,4.68,2.58,0,5.39.64,7.84-.16M355.06,322.79c.17-1.78.33-3.32-.04-4.97-2.1-.31-3.95-.2-6.02-.11-1.27,1.63-2.49,3.04-3.71,5.04,3.29.32,6.45.2,9.76.04M341.9,322.72l3.6-4.98-7.53-.08-3.81,5.06c2.61.21,5,.28,7.74,0M278.73,318.37c0-5.25-4.34-9.5-9.69-9.5s-9.69,4.25-9.69,9.5,4.34,9.5,9.69,9.5,9.69-4.25,9.69-9.5M294.4,323.23l-.06-16.57c-1.98-.08-3.69-.19-5.71-.02l-.05,16.71c2.03.27,3.82.37,5.82-.11M311.91,327.26l.05-23.68c0-.72-.56-1.55-1.32-1.58-2.57-.1-13.67,0-13.65,3.69l.11,19.29c1.92,1.05,14.81,5.71,14.81,2.28M277.11,327.51c2.62.07,8.88,1.48,8.88-1.41l-.02-22.56c0-.99-.63-1.92-1.8-1.91l-34.82.12c-.57,3.24-.15,6.11-.16,9.18l-.04,15.18c0,1.08.75,1.72,1.83,1.71,3.34-.05,6.42.12,10.03-.18-5.35-4.65-5.73-12.77-.92-17.57,5.04-5.03,12.87-5.05,17.78-.09,4.82,4.87,4.83,12.77-.76,17.54M246.6,319.93l-.05-18.05c-2.23-.19-4.23-.3-6.45.23l.02,17.71c2.18.55,4.22.44,6.47.12M280.62,298.99c-.52-3.71-5.36-1.49-7.47-3.93-1.83-2.12-.14-6.47-1.8-6.52l-.66,5.77c-.28,2.41-7.61,1.74-7.42,4.59l17.35.1ZM268.14,288.7c-3.12-.92-6.8,1.26-7.96-3.73-7.55,1.05-6.74,8.5-6.52,14.18l7.13-.04c.02-8.12,9.87-2.12,7.35-10.41M291.47,282.71c-.3-.53-7.34-.88-7.28.37.04.69,8.22,1.33,7.28-.37M281.24,285.88c.63-2.21.69-4.02-.11-5.94l-17.74.04c-.85,1.98-.92,4.22.09,5.99l17.76-.09ZM321.54,287.78c4.26,0,3.5-7.31,2.38-8.64-.71-.83-2.07-1.43-3.56-1.43l-22.72.03c-1.43,0-3.01.99-3.26,2.36-.34,1.89-.33,3.69.02,5.57.23,1.26,1.74,2.17,3.1,2.16l24.04-.05ZM357.73,317.65l-.02,24.94c0,1.91-1.65,3.53-3.61,3.53l-46.39-.02c-1.97,0-3.83-1.21-3.87-3.14l-.22-12.79-7.47-2.76c-1.56-.57-2.45-1.8-4.51-1.33-.76.18-2.52-.51-2.96.41-1.15,2.38-.74,3.82-5.42,3.92-1.29,4.88,7.03,10.91,1.81,10.88l-35.22-.18c-1.25,0-.53-2.21-.07-2.74,1.91-2.21,3.34-4.96,3.01-8-.67-.26-1.5-.14-2.29-.11-2.25.08-3.82-1.52-3.88-3.73-.04-1.33.03-2.51-.13-3.88l-5.23.05c-2.48.02-3.91-1.66-3.9-3.99l.04-16.04c0-1.96,1.47-3.4,3.42-3.41l10.17-.08c-.57-8.03-.23-15.2,9.08-17.16.39-1.13.32-2.5.87-3.21.75-.96,1.91-1.41,3.32-1.41l16.35-.02c1.93,0,2.66,1.51,3.92,2.22,2.04.83,4.66-.02,6.92.25,1.02-3.01,3.28-4.74,6.45-4.74l22.36-.04c2.18,0,4.09.6,5.35,1.97,1.49,1.61,1.74,3.42,1.84,5.74.13,3.21-1.55,7.47-5.39,7.5l-24.11.14c-2.95.02-5.25-1.6-6.37-4.28-14.78-.69-1.89,2.67-16.77,2.35-1.9,9.43,7.55,2.27,7.97,9.87.08,1.37,2.29-.06,4.81,2.04.87.72.49,2.56,1.19,3.36,8.12,1.41,4.82-1.74,9.58-2.87,3.13-.74,12.96-2.1,14.86-.48.82.7,1.27,1.79,1.27,3.14l-.02,23.42c0,1.89-1,3.81-2.95,3.85l-5.1.09.03,12.63,47.1.02c.87,0,1.53-.61,1.53-1.4l-.08-16.8-36.64-.11c-.61,0-.61-1.19-.6-1.53.02-.54,1.02-.57,1.48-1,6.22-5.84,2.44-5.84,3.51-6.71.36-.29,1.01-.71,1.79-.72l30.4-.13c1.27,0,2.75.98,2.75,2.5"/>
    <path class="st0" d="M328.74,310.14c.79-2.57,2.03-4.3,2.48-6.75-2.35.78-5.43.47-7.16,1.98-1.72,1.5-1.86,4.38-3.15,6.32,2.83-.19,5.08-.81,7.83-1.55M332.06,309.21l8.79-2.22,2.78-6.66c-2.96.3-5.57,1.15-8.52,1.92-1.17,2.3-2.33,4.41-3.04,6.96M351.67,304.26c.88-1.95,1.86-3.75,1.63-6.14-2.19-.17-4.24.68-6.39,1.32-1.09,2.29-2,4.36-2.76,6.69,2.84-.47,5.07-1.1,7.52-1.87M319.03,314.72c-4.1.4,1.68-7.29,1.62-8.9-.91.18-1.48.14-2.09.22-.61.08-1.34-.99-1.04-1.71l34.5-8.94c1.77-.46,3.09.23,3.52,1.98l1.46,5.88c.29,1.17-.31,2.53-1.61,2.86l-25.04,6.27c-3.85.96-7.38,1.96-11.32,2.35"/>
    <path class="st0" d="M336.33,334.17c.48,1.31-7.51,4.77-9,5.31-1.64.6-.75-8.62-.52-10.05,1.61.54,9.26,4.04,9.52,4.74"/>
    <path class="st0" d="M255.44,309.98c-3.14.03-4.91.52-5.06-1.04-.14-1.49,2.99-1.16,5.04-1.14.81,0,1.38.43,1.31,1.15-.05.51-.45,1.03-1.3,1.04"/>
    <path class="st0" d="M255.63,306.19c-2.69.15-5.4.44-5.27-1.13.04-.41.36-.93,1.11-.93h3.91c.63-.01,1.07.21,1.18.51.23.62.11,1.49-.93,1.55"/>
    <path class="st0" d="M267.12,322.52c-.83-.62-.91-1.81-.12-2.39.93-.68,1.94-.91,3.06-1.62l-3.15-1.97c-.68-.43-.72-2.38.09-2.26,1.36.2,6.63,2.96,6.62,4.21-.02,1.46-4.71,3.14-6.49,4.02"/>
    <path class="st0" d="M257.18,524.34c2.49.84,4.87.21,7.24,1.3.53,3.87,1.3,7.48,3.17,10.83,1.52,2.73-2.75,5.07-3.97,7.95l5.48,6.17,6.99-3.41c4.13,2.74,8.53,4.64,13.56,5.55.99,2.47.6,4.87,1.23,7.55,3,.22,6.02.25,8.88-.04,1.11-2.2.34-4.86,1.72-6.73.61-.83,5.65-2.33,6-.08.27,1.68-3.14,1.43-3.68,2.46-1.44,2.76-.19,7.64-3.29,7.53-4.02-.14-8.01.3-12.03-.19l-1.34-7.88c-4.11-.99-7.81-2.4-11.29-4.63-2.48.76-6.35,5-8.89,2.19l-5.87-6.5c-2.63-2.91,2.14-6.03,3.5-8.71-1.22-3.09-2.29-6.09-2.76-9.45-2.79-1.15-8.06.64-7.69-3.42.33-3.52-.61-7.29.32-10.75,1.5-1.81,5.34-1.03,7.65-.52,1.26-3.55,2.43-6.97,4.71-10.11-1.18-3.16-5.69-6.41-2.44-9.06l5.64-4.6c2.39-1.95,4.96,1.84,8.18,3.21,2.78-1.26,5.65-2.29,8.67-3.17,1.53-4.44-.32-8.15,3.9-8.13l10.37.05,1.5,7.75c3,.81,5.8,1.72,8.49,3.03,2.32-.81,5.68-4.8,7.53-3.23l6.14,5.21c3.05,2.59-.79,5.57-1.53,8.32,2,3.18,3.65,6.34,4.66,10.05l6.75.48c.97.07,1.67.78,1.67,1.83v10.24c0,3.44-4.3,2.35-7.31,3.6l-1.76,5.8c-.25.81-1.5.39-1.93-.14-.36-.44-.87-1.26-.36-2.17.94-1.7.51-4.34,1.94-5.72,1.59-1.53,4.35-.84,6.31-1.97.35-2.77.16-5.6.06-8.35l-7.72-.8c-1.2-4.38-2.91-8.25-5.47-11.91-1.17-1.67,2.17-4.93,2.75-6.61-1.72-1.7-3.44-3.41-5.55-4.8l-6.04,3.62c-3.61-1.69-7.15-3.15-11.06-3.91-1.14-2.38-.87-4.81-1.46-7.34-2.45-.32-4.92-.1-7.62-.09l-1.82,7.64c-12.52,2.77-7.54,7.09-17.58.22-1.97,1.24-3.59,2.84-5.34,4.36,1.28,2.29,2.92,4.01,3.86,6.66-2.34,3.6-4.08,7.24-5.23,11.36-2.78.41-5.22.66-7.79,1.37-.26,2.65-.18,5.06-.06,8.09"/>
    <path class="st0" d="M299.52,540.75l1.12-3.42c1.12.06,1.09,1.43,1.87,2.06.57.46,2.39-.33,2.96-.94.93-3.89-2.29-7.5-6.43-7.47l-7.75.05c-3.88.02-7.01,3.51-6.22,7.35.81,1.08,2.86,1.5,4.11,1.84l1.24-2.93c1.59.08.96,2.59,1.75,3.23,2.04.89,5.14.81,7.37.23M300.35,519.67c0-2.82-2.28-5.1-5.1-5.1s-5.1,2.29-5.1,5.1,2.29,5.11,5.1,5.11,5.1-2.29,5.1-5.11M288.9,514.64c2.64-3.11,6.64-3.76,9.91-2.19,3.26,1.56,5.08,5.1,4.31,8.98-.64,3.22-3.15,5.39-6.95,6.58,6.38-.37,11.06,1.71,12.58,8.01,4.2-4.33,6.49-9.69,5.87-15.46-.8-7.41-5.93-13.59-12.13-15.98-7.6-2.92-15.39-.87-20.88,4.44-7.84,7.58-7.68,19.93.44,27.14,1.21-6.21,5.94-8.58,11.98-8.2-2.91-.99-5.18-2.76-6.15-5.17-1.09-2.73-.99-5.78,1.01-8.14M317.5,522.27c0,12.28-9.95,22.23-22.23,22.23s-22.23-9.95-22.23-22.23,9.95-22.23,22.23-22.23,22.23,9.95,22.23,22.23"/>
    <path class="st0" d="M331.76,574.21c.9-2.18,1.3-3.54,2.97-4.15,1.74-.64,3.21-.69,5.06.25,1.2.6,3.24-1.3,2.63-2.55-.9-1.84-1.42-3.28-.49-5.11.63-1.23,1.9-1.97,3.77-2.43,1.27-.32,1.41-3.27.28-3.62-2.24-.7-3.81-1.1-4.52-3.23-1.46-4.4,3.36-4.44-.62-7.19-1.62-1.12-3,1.78-7.31-.58-1.16-.63-1.26-2.2-2-3.6-.5-.95-3.5-.93-4,.01-.96,1.83-1.41,3.49-3.15,4.05-2.06.66-3.54.18-5.56-.4-.97-.27-2.85,1.74-2.85,2.7.99,1.81,1.68,3.58.89,5.37-.81,1.84-2.15,2.61-4.18,3.46-.86.36-.74,3.18.1,3.55,1.74.76,3.51.85,4.1,2.48,1.95,5.37-2.28,4.2.85,7.31,1.85,1.84,3.14-2.28,8.05.07,1.09.52,1.3,2.11,1.99,3.56.47.96,3.57,1.02,3.97.05M326.45,577.53c-1.91-.13-1.3-3.63-2.51-4.5-1.7-1.22-4.48,1.97-5.8,1.34-1.78-.85-3.4-2.5-4.66-4.05-1.23-1.52,1.49-3.54.85-5.55-.44-1.39-4.32-.61-4.66-2.38-.41-2.12-.48-4.42-.12-6.6.24-1.41,3.86-1.47,4.55-2.71,1.24-2.21-2.29-4.34-1.16-6.07,1.05-1.61,2.66-2.85,4.06-4.14,1.94-1.79,4.27,1.13,6.18.45,1.47-.52,1.36-3.87,3.15-4.34,2.24-.58,4.64-.4,6.94-.11,1.22,1.17,1.05,3.2,2.31,4.17,1.41,1.09,3.14-.28,4.56-.44,1.79-.2,2.82,1.71,4.05,2.63,4.01,3-1.9,6.83.58,7.66l4.29,1.43c.37,2.31.79,5.02-.03,7.28-.47,1.3-4.17,1.22-4.6,2.7-.34,1.13,1.76,2.99,1.52,4.8-.14,1.08-1.41,1.76-2.15,2.65-3.65,4.43-4.97-.14-7.91,1.03-1.44.58-.88,4.46-2.7,4.65-2.15.22-4.29.23-6.74.07"/>
    <path class="st0" d="M336.01,557.95c0-3.71-3-6.71-6.71-6.71s-6.71,3-6.71,6.71,3,6.71,6.71,6.71,6.71-3,6.71-6.71M338.76,557.98c0,5.23-4.24,9.47-9.47,9.47s-9.47-4.24-9.47-9.47,4.24-9.47,9.47-9.47,9.47,4.24,9.47,9.47"/>
    <path class="st0" d="M288.59,774.03v18.88s46.83,0,46.83,0v-18.89s-46.83,0-46.83,0ZM331.82,771.6c.33-1.65.36-2.96-.18-4.37l-11.69.04c-.5,1.56-.52,2.96-.21,4.37l12.08-.04ZM317.62,771.59c.12-2.03.02-3.05-.42-4.46l-24.49.07c-.39,1.57-.75,3.34.14,4.46l24.77-.07ZM320.53,748.96l-.16-14.6-52.5-.29c-.34-.01-.29-.59-.15-.74.15-.16.24-.74.74-.75l58.66-.22c1.18-.13,1.03-4.38-.27-4.39l-27.1-.25c-10.4-.1-20.5-.3-30.83.22-1.17.7-1.39,3.94-.2,4.64l38.99.17c-1.79,1.76-4.42,1.34-6.68,1.34l-23.88.02c-.8-.08-1.64.46-1.64,1.33l.02,15.52h44.2c.69,0,.8-1.42.79-2M331.8,764.77c3.35,0,1.93,5.5,2.74,6.52.61.78,3.29-.06,3.27,3.67l-.06,17.18c0,1.92-1.24,3.04-3.07,3.04l-45.5-.03c-1.58,0-2.78-.97-2.79-2.55l-.11-14.03c-3.56-.35-6.97-.23-10.71-.03l-.04,20.7h44c.62,0,1.12-1.67,1.98-1.05.72.52.84,2.05.16,3h-46.92c-1.01,0-1.39-.86-1.39-1.77l-.02-65.1c-1.81-.52-3.29-.39-5.25-.06l-.05,67.48c0,2.38,1.65,4.23,4.1,4.23l50.99-.06c5.57,0,2.96-7.32,4.72-7.59,1.74-.27,1.38,1.77,1.41,2.87.1,3.99-2.35,7.12-6.56,7.12l-50.56-.06c-3.66,0-6.25-2.83-6.26-6.6l-.11-72.13c0-2.21,1.61-4.05,3.82-4.05l56.95.04c2.02,0,3.55,2.01,3.55,3.88l.02,30.95c0,.65-.57,1.07-.88,1.26-.35.22-1.4-.19-1.4-.92l-.17-26.33c-1.66-.46-3.33-.49-5.04.14l-.15,25.41c0,.67-.23,1.32-.75,1.35-.36.02-1.12-.32-1.14-.95l-.19-6.98h-44.87s.05,22.76.05,22.76h10.72c.04-1.39-.01-2.53.64-3.52.54-.82,1.73-.91,3.02-1.06.57-2.46-.4-4.14.95-6.14.38-.57,1.74-.36,2.25-.94.79-1.06.2-2.67.39-3.93.68-4.52,12.83-1.35,11.66-2.14l2.3,1.55c.98.66,8.07-.76,9.05,1.01.34.6.62,1.63-.16,2.05-.79.42-1.51-.49-2.21-.51l-7.9-.2-2.3-1.68c-1.85-1.35-5.17.02-7.86-.02-.65,1.27-.54,2.6-.3,4.16l36.02.05Z"/>
  </g>
  <rect class="st0" x="292.02" y="740.01" width="12.84" height="2.28" transform="translate(-2.16 .87) rotate(-.17)"/>
  <rect class="st0" x="305.96" y="781.92" width="12.52" height="2.44"/>
</svg>